<?xml version="1.0" encoding="utf-8"?>
<!-- Generator: Adobe Illustrator 22.0.1, SVG Export Plug-In . SVG Version: 6.00 Build 0)  -->
<svg version="1.1" id="Layer_1" xmlns="http://www.w3.org/2000/svg" xmlns:xlink="http://www.w3.org/1999/xlink" x="0px" y="0px"
	 viewBox="0 0 96 86" style="enable-background:new 0 0 96 86;" xml:space="preserve">
<style type="text/css">
	.st0{fill:#FFFFFF;}
</style>
<g transform="translate(0,-952.36218)">
	<g transform="translate(1.4921265,959.33145)">
		<path class="st0" d="M26.6-6.9c-3.4,0.1-6.5,1.3-8.7,3.5c-2.3,2.3-3.6,5.6-3.6,9.3v56.4H-1.5c0,6.9,0.5,10.1,3.3,13
			c2.2,2.2,5.1,2.9,7.5,2.9h63.4c2.9,0,5.6-1.4,7.5-3.3c2-2,3.3-4.6,3.3-7.5V14.8c6.9,0,10.9-5.9,10.9-10.9c0-6.3-4.6-10.6-9.4-10.8
			C65.2-7,44.5-7,26.6-6.9z M26.8-1c3.4,0,4.4,2,4.4,4.9c0,3.5-2.8,5-4,5c-1.5,0-2.9,1.4-2.9,2.9s1.4,2.9,2.9,3h50.5v52.5
			c0,1-0.6,2.3-1.6,3.3c-1,1-2.3,1.6-3.3,1.6H19.1c1.3-3.4,1.2-6.3,1.2-9.9V5.8c0-2.3,0.7-3.9,1.9-5C23.7-0.3,25.3-0.9,26.8-1z
			 M30.2,24.7v5.9h37.6v-5.9H30.2z M30.2,40.5v5.9h37.6v-5.9H30.2z M30.2,56.4v5.9h37.6v-5.9H30.2z"/>
	</g>
</g>
</svg>
